<svg width="168" height="81" viewBox="0 0 168 81" fill="none" xmlns="http://www.w3.org/2000/svg">
<g clip-path="url(#clip0_132_725)">
<path d="M98.7159 13.7565H87.1315V10.6468C87.1315 4.76886 82.3529 0 76.4629 0V32.9606C76.494 32.9606 76.5296 32.9606 76.5607 32.9606V35.8707C76.5607 48.0834 86.4825 57.9805 98.7159 57.9805C110.954 57.9805 120.871 48.079 120.871 35.8707C120.871 23.658 110.949 13.7565 98.7159 13.7565ZM110.162 36.2123C110.162 42.4007 105.135 47.418 98.9337 47.418H98.5381C92.3369 47.418 87.3093 42.4007 87.3093 36.2123V24.9045C87.3093 24.7448 87.4383 24.6162 87.5983 24.6162H98.9293C105.13 24.6162 110.158 29.6335 110.158 35.8219V36.2167L110.162 36.2123Z" fill="#08090E"/>
<path d="M62.9849 13.6545V46.584C62.9849 52.4619 67.7591 57.2264 73.6491 57.2264V24.3012C73.6491 18.4233 68.8748 13.6589 62.9849 13.6589V13.6545Z" fill="#08090E"/>
<path d="M60.3179 13.6545H54.5879C45.5151 13.6545 38.1582 20.9963 38.1582 30.0505V57.2264C44.1371 57.2264 48.9824 52.3909 48.9824 46.4243V32.3218C48.9824 27.8235 52.6364 24.1726 57.1484 24.1726H60.3134V13.6545H60.3179Z" fill="#08090E"/>
<path d="M145.845 13.9517C133.607 13.9517 123.689 23.8532 123.689 36.0615C123.689 48.2698 133.611 58.1713 145.845 58.1713C158.078 58.1713 168 48.2698 168 36.0615C168 23.8532 158.078 13.9517 145.845 13.9517ZM148.396 47.1918C139.483 49.1126 131.82 40.6485 135.26 31.6253C136.332 28.8128 138.577 26.5726 141.399 25.499C150.441 22.0654 158.923 29.7089 156.998 38.6078C156.064 42.9287 152.726 46.2558 148.396 47.1918Z" fill="#08090E"/>
<path d="M5.33413 24.4654C8.2802 24.4654 10.6685 22.082 10.6685 19.142C10.6685 16.202 8.2802 13.8186 5.33413 13.8186C2.38807 13.8186 -0.00018692 16.202 -0.00018692 19.142C-0.00018692 22.082 2.38807 24.4654 5.33413 24.4654Z" fill="#1D9BF0"/>
<path d="M32.3261 46.8058C27.8186 46.8058 24.1602 43.1593 24.1602 38.6566V24.4654H26.9473C31.6104 24.4654 35.3934 20.6902 35.3934 16.0367V13.8186H24.1602V10.802C24.1602 4.8354 19.3148 0 13.3359 0V40.9279C13.3359 49.9821 20.6929 57.3239 29.7656 57.3239H35.4956V46.8103H32.3306L32.3261 46.8058Z" fill="#08090E"/>
<path d="M68.4616 10.6468C71.4076 10.6468 73.7959 8.2634 73.7959 5.32338C73.7959 2.38336 71.4076 0 68.4616 0C65.5155 0 63.1273 2.38336 63.1273 5.32338C63.1273 8.2634 65.5155 10.6468 68.4616 10.6468Z" fill="#08090E"/>
</g>
<path d="M125.934 67.7624C126.933 67.7624 127.809 67.9576 128.563 68.3481C129.325 68.7386 129.911 69.2971 130.32 70.0236C130.738 70.741 130.946 71.5764 130.946 72.5299C130.946 73.4835 130.738 74.3189 130.32 75.0363C129.911 75.7446 129.325 76.294 128.563 76.6845C127.809 77.075 126.933 77.2703 125.934 77.2703H122.61V67.7624H125.934ZM125.866 75.6493C126.864 75.6493 127.636 75.3769 128.181 74.832C128.726 74.2871 128.998 73.5198 128.998 72.5299C128.998 71.5401 128.726 70.7682 128.181 70.2143C127.636 69.6512 126.864 69.3697 125.866 69.3697H124.517V75.6493H125.866ZM133.341 68.8249C133.005 68.8249 132.724 68.7204 132.496 68.5116C132.279 68.2936 132.17 68.0257 132.17 67.7079C132.17 67.39 132.279 67.1267 132.496 66.9178C132.724 66.6999 133.005 66.5909 133.341 66.5909C133.677 66.5909 133.954 66.6999 134.172 66.9178C134.399 67.1267 134.512 67.39 134.512 67.7079C134.512 68.0257 134.399 68.2936 134.172 68.5116C133.954 68.7204 133.677 68.8249 133.341 68.8249ZM134.281 69.7239V77.2703H132.374V69.7239H134.281ZM139.121 69.6013C139.684 69.6013 140.179 69.7148 140.606 69.9418C141.033 70.1598 141.369 70.4458 141.614 70.8V69.7239H143.534V77.3248C143.534 78.024 143.394 78.646 143.112 79.1909C142.831 79.7449 142.408 80.1808 141.845 80.4986C141.282 80.8255 140.601 80.989 139.802 80.989C138.73 80.989 137.85 80.7392 137.159 80.2398C136.478 79.7403 136.092 79.0592 136.002 78.1965H137.895C137.995 78.5416 138.208 78.814 138.535 79.0138C138.871 79.2227 139.275 79.3271 139.748 79.3271C140.302 79.3271 140.751 79.1591 141.096 78.8231C141.441 78.4962 141.614 77.9968 141.614 77.3248V76.1533C141.369 76.5075 141.028 76.8026 140.592 77.0387C140.165 77.2748 139.675 77.3929 139.121 77.3929C138.485 77.3929 137.904 77.2294 137.377 76.9025C136.851 76.5756 136.433 76.117 136.124 75.5267C135.825 74.9273 135.675 74.2417 135.675 73.4698C135.675 72.707 135.825 72.0305 136.124 71.4402C136.433 70.8499 136.846 70.3959 137.364 70.078C137.89 69.7602 138.476 69.6013 139.121 69.6013ZM141.614 73.4971C141.614 73.0339 141.523 72.6389 141.341 72.312C141.16 71.976 140.914 71.7217 140.606 71.5492C140.297 71.3676 139.966 71.2768 139.611 71.2768C139.257 71.2768 138.93 71.363 138.631 71.5356C138.331 71.7081 138.086 71.9624 137.895 72.2984C137.713 72.6253 137.623 73.0158 137.623 73.4698C137.623 73.9239 137.713 74.3235 137.895 74.6685C138.086 75.0045 138.331 75.2633 138.631 75.445C138.939 75.6266 139.266 75.7174 139.611 75.7174C139.966 75.7174 140.297 75.6311 140.606 75.4586C140.914 75.277 141.16 75.0227 141.341 74.6958C141.523 74.3598 141.614 73.9602 141.614 73.4971ZM146.364 68.8249C146.028 68.8249 145.747 68.7204 145.52 68.5116C145.302 68.2936 145.193 68.0257 145.193 67.7079C145.193 67.39 145.302 67.1267 145.52 66.9178C145.747 66.6999 146.028 66.5909 146.364 66.5909C146.7 66.5909 146.977 66.6999 147.195 66.9178C147.422 67.1267 147.536 67.39 147.536 67.7079C147.536 68.0257 147.422 68.2936 147.195 68.5116C146.977 68.7204 146.7 68.8249 146.364 68.8249ZM147.304 69.7239V77.2703H145.397V69.7239H147.304ZM151.408 71.2904V74.941C151.408 75.1952 151.467 75.3814 151.585 75.4995C151.713 75.6084 151.921 75.6629 152.212 75.6629H153.097V77.2703H151.899C150.291 77.2703 149.488 76.4893 149.488 74.9273V71.2904H148.589V69.7239H149.488V67.8577H151.408V69.7239H153.097V71.2904H151.408ZM153.979 73.4698C153.979 72.707 154.129 72.0305 154.428 71.4402C154.737 70.8499 155.15 70.3959 155.668 70.078C156.195 69.7602 156.78 69.6013 157.425 69.6013C157.988 69.6013 158.478 69.7148 158.896 69.9418C159.323 70.1689 159.664 70.4549 159.918 70.8V69.7239H161.838V77.2703H159.918V76.1669C159.673 76.5211 159.332 76.8162 158.896 77.0523C158.469 77.2793 157.974 77.3929 157.411 77.3929C156.776 77.3929 156.195 77.2294 155.668 76.9025C155.15 76.5756 154.737 76.117 154.428 75.5267C154.129 74.9273 153.979 74.2417 153.979 73.4698ZM159.918 73.4971C159.918 73.0339 159.827 72.6389 159.645 72.312C159.464 71.976 159.219 71.7217 158.91 71.5492C158.601 71.3676 158.27 71.2768 157.915 71.2768C157.561 71.2768 157.234 71.363 156.935 71.5356C156.635 71.7081 156.39 71.9624 156.199 72.2984C156.017 72.6253 155.927 73.0158 155.927 73.4698C155.927 73.9239 156.017 74.3235 156.199 74.6685C156.39 75.0045 156.635 75.2633 156.935 75.445C157.243 75.6266 157.57 75.7174 157.915 75.7174C158.27 75.7174 158.601 75.6311 158.91 75.4586C159.219 75.277 159.464 75.0227 159.645 74.6958C159.827 74.3598 159.918 73.9602 159.918 73.4971ZM165.608 67.1903V77.2703H163.701V67.1903H165.608Z" fill="#08090E"/>
<defs>
<clipPath id="clip0_132_725">
<rect width="168" height="58.1757" fill="white"/>
</clipPath>
</defs>
</svg>
